<?xml version="1.0" encoding="utf-8" ?>
<svg baseProfile="tiny" height="58cm" version="1.2" width="7.25cm" xmlns="http://www.w3.org/2000/svg" xmlns:ev="http://www.w3.org/2001/xml-events" xmlns:xlink="http://www.w3.org/1999/xlink"><defs /><line x1="0cm" x2="0cm" y1="0cm" y2="58cm" /><line x1="0cm" x2="7.25cm" y1="0cm" y2="0cm" /><line x1="7.25cm" x2="7.25cm" y1="0cm" y2="58cm" /><line x1="0cm" x2="7.25cm" y1="58cm" y2="58cm" /><circle cx="5.525cm" cy="0.6cm" r="0.3cm" /><rect height="0.9cm" width="1.1cm" x="0cm" y="0cm" /><rect height="0.9cm" width="1.1cm" x="0cm" y="57.1cm" /><circle cx="1cm" cy="2cm" r="0.3cm" /><circle cx="1.725cm" cy="0.6cm" r="0.3cm" /><rect height="0.9cm" width="1.1cm" x="6.15cm" y="0cm" /><rect height="0.9cm" width="1.1cm" x="6.15cm" y="57.1cm" /><circle cx="5.525cm" cy="57.4cm" r="0.3cm" /><circle cx="1.725cm" cy="57.4cm" r="0.3cm" /><rect height="0.9190588235294118cm" width="0.5cm" x="2.8cm" y="7.15cm" /><rect height="0.6295384615384615cm" width="0.5cm" x="1.81cm" y="8.069058823529412cm" /><rect height="0.9729230769230769cm" width="0.5cm" x="0.7cm" y="8.698597285067873cm" /><rect height="0.5689411764705882cm" width="0.5cm" x="2.8cm" y="9.67152036199095cm" /><rect height="0.4862258823529411cm" width="0.5cm" x="3.9cm" y="10.612461538461538cm" /><rect height="3.3525784615384615cm" width="0.5cm" x="0.7cm" y="11.09868742081448cm" /><rect height="1.387273846153846cm" width="0.5cm" x="1.81cm" y="14.451265882352942cm" /><rect height="0.4420235294117647cm" width="0.5cm" x="2.8cm" y="15.838539728506788cm" /><rect height="0.5837538461538462cm" width="0.5cm" x="0.7cm" y="16.65256325791855cm" /><rect height="1.18296cm" width="0.5cm" x="2.8cm" y="17.2363171040724cm" /><rect height="0.27046588235294117cm" width="0.5cm" x="2.8cm" y="18.4192771040724cm" /><rect height="0.8842153846153846cm" width="0.5cm" x="1.81cm" y="18.68974298642534cm" /><rect height="0.45077647058823533cm" width="0.5cm" x="2.8cm" y="19.573958371040725cm" /><rect height="0.29584941176470586cm" width="0.5cm" x="3.9cm" y="20.39673484162896cm" /><rect height="2.55936cm" width="0.5cm" x="0.7cm" y="20.692584253393665cm" /><rect height="0.3413647058823529cm" width="0.5cm" x="2.8cm" y="23.251944253393667cm" /><rect height="1.1488235294117648cm" width="0.5cm" x="2.8cm" y="23.59330895927602cm" /><rect height="3.4578830769230775cm" width="0.5cm" x="1.81cm" y="24.742132488687783cm" /><rect height="0.5798823529411765cm" width="0.5cm" x="2.8cm" y="28.20001556561086cm" /><rect height="2.341411764705882cm" width="0.5cm" x="2.8cm" y="28.779897918552038cm" /><rect height="0.6736061538461539cm" width="0.5cm" x="1.81cm" y="31.12130968325792cm" /><rect height="1.59216cm" width="0.5cm" x="2.8cm" y="31.794915837104075cm" /><rect height="1.714633846153846cm" width="0.5cm" x="0.7cm" y="33.38707583710408cm" /><rect height="1.653396923076923cm" width="0.5cm" x="1.81cm" y="35.10170968325792cm" /><rect height="29.60510660633485cm" width="0.5cm" x="5.03cm" y="7.15cm" /><rect height="14.094893393665153cm" width="0.5cm" x="6.13cm" y="36.75510660633485cm" /><rect height="0.10941176470588236cm" width="0.5cm" x="2.8cm" y="37.12710660633485cm" /><rect height="0.8584615384615384cm" width="0.5cm" x="0.7cm" y="37.23651837104073cm" /><rect height="1.3785882352941177cm" width="0.5cm" x="2.8cm" y="38.09497990950227cm" /><rect height="1.3735384615384616cm" width="0.5cm" x="0.7cm" y="39.47356814479639cm" /></svg>