<?xml version="1.0" encoding="utf-8" ?>
<svg baseProfile="tiny" height="55cm" version="1.2" width="6.5cm" xmlns="http://www.w3.org/2000/svg" xmlns:ev="http://www.w3.org/2001/xml-events" xmlns:xlink="http://www.w3.org/1999/xlink"><defs /><rect height="1.0cm" width="0.5cm" x="2.5cm" y="2.0cm" /><rect height="1.0cm" width="0.5cm" x="0.5cm" y="2.0cm" /><rect height="1.0cm" width="0.5cm" x="0.5cm" y="3.0cm" /><rect height="1.0cm" width="0.5cm" x="2.5cm" y="4.5cm" /><rect height="1.0cm" width="0.5cm" x="1.5cm" y="4.5cm" /><rect height="1.0cm" width="0.5cm" x="0.5cm" y="5.5cm" /><rect height="1.0cm" width="0.5cm" x="2.5cm" y="6.5cm" /><rect height="5.5cm" width="0.5cm" x="4.5cm" y="2.0cm" /><rect height="45.5cm" width="0.5cm" x="5.5cm" y="7.5cm" /><rect height="3.3cm" width="0.5cm" x="2.5cm" y="8.0cm" /><rect height="3.3cm" width="0.5cm" x="0.5cm" y="8.0cm" /><rect height="1.0cm" width="0.5cm" x="3.5cm" y="11.3cm" /><rect height="1.0cm" width="0.5cm" x="0.5cm" y="11.3cm" /><rect height="0.5cm" width="0.5cm" x="2.5cm" y="12.3cm" /><rect height="0.5cm" width="0.5cm" x="0.5cm" y="12.3cm" /><rect height="1.0cm" width="0.5cm" x="2.5cm" y="12.8cm" /><rect height="2.0cm" width="0.5cm" x="2.5cm" y="13.8cm" /><rect height="2.0cm" width="0.5cm" x="0.5cm" y="13.8cm" /></svg>